<?xml version="1.0" encoding="UTF-8"?>
<svg version="1.1" xmlns="http://www.w3.org/2000/svg" width="16" height="16">
<path d="M0 0 C2 3 2 3 1.75 5.5625 C1 8 1 8 -1 10 C-4.09771665 10.32954432 -6.17331023 10.45334601 -8.9375 8.9375 C-10.68524469 5.75043615 -9.92651358 3.39721645 -9 0 C-5.81265741 -2.8458416 -3.53132005 -1.95151897 0 0 Z " fill="#C1A7C8" transform="translate(12,4)"/>
<path d="M0 0 C2.0625 1.6875 2.0625 1.6875 4 4 C3.83849795 7.39154295 3.41703243 8.58296757 1 11 C-2.125 11.125 -2.125 11.125 -5 11 C-5.33 10.34 -5.66 9.68 -6 9 C-3 8 -3 8 0 9 C0.33 8.01 0.66 7.02 1 6 C0.34 6 -0.32 6 -1 6 C-1.042721 4.33388095 -1.04063832 2.66617115 -1 1 C-0.67 0.67 -0.34 0.34 0 0 Z " fill="#CDB1D4" transform="translate(10,3)"/>
<path d="M0 0 C0.33 1.32 0.66 2.64 1 4 C1.66 4 2.32 4 3 4 C2.67 5.32 2.34 6.64 2 8 C1.01 7.67 0.02 7.34 -1 7 C-0.67 4.69 -0.34 2.38 0 0 Z " fill="#9E88A3" transform="translate(8,5)"/>
</svg>
