<?xml version="1.0" encoding="UTF-8"?>
<svg version="1.1" xmlns="http://www.w3.org/2000/svg" width="500" height="500">
<path d="M0 0 C0.5357666 0.42007324 1.0715332 0.84014648 1.62353516 1.27294922 C17.5050346 13.787311 32.20679523 28.56946725 44 45 C45.14082031 46.55847656 45.14082031 46.55847656 46.3046875 48.1484375 C83.55498363 100.35040958 100.04834721 166.47552399 89.54345703 229.96386719 C82.05774003 271.78434185 65.51433702 309.74690835 39 343 C38.57074219 343.54495117 38.14148438 344.08990234 37.69921875 344.65136719 C26.49590586 358.77690643 13.45644512 372.20585431 -1 383 C-1.92570801 383.70769531 -1.92570801 383.70769531 -2.87011719 384.4296875 C-38.17430687 411.34724891 -79.06127138 427.36632983 -123 433 C-123.71607422 433.09571289 -124.43214844 433.19142578 -125.16992188 433.29003906 C-133.45929897 434.26752689 -141.78989391 434.24363271 -150.125 434.25 C-150.92101624 434.25067474 -151.71703247 434.25134949 -152.53717041 434.25204468 C-185.92583683 434.20728775 -218.35406436 427.31671976 -249 414 C-249.6511377 413.71962891 -250.30227539 413.43925781 -250.97314453 413.15039062 C-269.42728772 405.11025899 -286.29036489 394.54702618 -302 382 C-302.54108398 381.57460938 -303.08216797 381.14921875 -303.63964844 380.7109375 C-319.18475566 368.42170419 -333.36812569 354.03909883 -345 338 C-345.85491814 336.85115255 -346.71039429 335.70272016 -347.56640625 334.5546875 C-371.00297927 302.78511074 -385.5589657 265.8325167 -392 227 C-392.13277344 226.20658203 -392.26554687 225.41316406 -392.40234375 224.59570312 C-402.20368639 162.42876022 -383.77057676 97.64082046 -347.50146484 47.05175781 C-344.19387006 42.5319161 -340.68547918 38.2189038 -337 34 C-336.03320312 32.86884766 -336.03320312 32.86884766 -335.046875 31.71484375 C-323.55775584 18.5812896 -311.18271172 6.20207659 -297 -4 C-296.37802734 -4.45036621 -295.75605469 -4.90073242 -295.11523438 -5.36474609 C-264.48117267 -27.38586432 -230.24006558 -42.38228415 -193 -49 C-192.11376953 -49.16081055 -191.22753906 -49.32162109 -190.31445312 -49.48730469 C-123.54700325 -61.04412595 -52.74805845 -42.10272578 0 0 Z " fill="#CEB2D5" transform="translate(400,59)"/>
<path d="M0 0 C0 0.99 0 1.98 0 3 C-1.7578125 4.359375 -1.7578125 4.359375 -4.125 5.75 C-14.80365608 12.64697912 -21.19380185 24.26662885 -24.24462891 36.50024414 C-27.38333085 51.11443476 -27.46945956 65.42341124 -27.25 80.3125 C-27.22987358 82.72199011 -27.21163384 85.13149674 -27.1953125 87.54101562 C-27.15187543 93.36104651 -27.0854656 99.18044214 -27 105 C-26.21496094 104.72285156 -25.42992187 104.44570312 -24.62109375 104.16015625 C-9.92884738 99.09448603 3.88089452 99.18612542 19.09765625 101.4921875 C24.2659778 102.16474186 29.42579056 102.43768769 34.63061523 102.65795898 C39.90103798 102.90103798 39.90103798 102.90103798 41 104 C41.08865208 106.8843382 41.11521296 109.74462158 41.09765625 112.62890625 C41.09553383 113.92525246 41.09553383 113.92525246 41.09336853 115.24778748 C41.08775239 118.01939292 41.07519719 120.7909188 41.0625 123.5625 C41.05748708 125.4368478 41.05292381 127.31119685 41.04882812 129.18554688 C41.03777772 133.79039544 41.0205023 138.39518421 41 143 C40.01 143 39.02 143 38 143 C37.85304688 142.154375 37.70609375 141.30875 37.5546875 140.4375 C36.06395127 132.89814434 34.35893597 127.56308591 29 122 C28.52046875 121.45859375 28.0409375 120.9171875 27.546875 120.359375 C20.80699493 113.61949493 10.69923033 110.74655417 1.375 110.5 C-9.17412724 110.98767255 -19.29343469 113.29343469 -27 121 C-27.14035809 122.61343107 -27.21225615 124.23288226 -27.25634766 125.85180664 C-27.2998082 127.40461082 -27.2998082 127.40461082 -27.34414673 128.98878479 C-27.44149036 133.75235554 -27.51575201 138.51577048 -27.56982422 143.2800293 C-27.60643006 145.78947281 -27.66094467 148.29872278 -27.73388672 150.80737305 C-27.83754657 154.42567522 -27.88180224 158.04059587 -27.9140625 161.66015625 C-27.97903427 163.3324807 -27.97903427 163.3324807 -28.0453186 165.03858948 C-28.03417417 169.6630248 -27.99269084 172.75268272 -25.0478363 176.45289612 C-22.7854823 178.48356595 -20.4928471 180.2640111 -18 182 C-16.91956348 182.85613641 -15.84224204 183.71623439 -14.76953125 184.58203125 C-13.79371094 185.31808594 -12.81789063 186.05414063 -11.8125 186.8125 C-10.70655114 187.65301448 -9.60110157 188.49418623 -8.49609375 189.3359375 C-7.93003418 189.76616211 -7.36397461 190.19638672 -6.78076172 190.63964844 C-3.62712568 193.04876003 -0.49961217 195.49092745 2.625 197.9375 C3.21692139 198.39809814 3.80884277 198.85869629 4.41870117 199.33325195 C7.09967536 201.43470321 9.62383842 203.56181717 12 206 C6.76726669 206.04935824 1.53466824 206.08569949 -3.69824219 206.10986328 C-5.47919067 206.11993431 -7.26012257 206.13359185 -9.04101562 206.15087891 C-11.59769783 206.17507913 -14.15416185 206.18647184 -16.7109375 206.1953125 C-17.50994476 206.20563507 -18.30895203 206.21595764 -19.13217163 206.22659302 C-21.0895722 206.22699226 -23.04643077 206.12241069 -25 206 C-25.66 205.34 -26.32 204.68 -27 204 C-27.33 204.66 -27.66 205.32 -28 206 C-34.93 206 -41.86 206 -49 206 C-49.01417969 204.45570313 -49.02835938 202.91140625 -49.04296875 201.3203125 C-49.08990359 199.25517973 -49.13815075 197.19007649 -49.1875 195.125 C-49.19330078 194.11179687 -49.19910156 193.09859375 -49.20507812 192.0546875 C-49.35907041 186.71628829 -49.85140231 182.71739717 -52.42578125 177.9921875 C-55 173 -55 173 -57 161 C-95.61 161 -134.22 161 -174 161 C-174 175.85 -174 190.7 -174 206 C-180.93 206 -187.86 206 -195 206 C-195.00586624 204.18422455 -195.01173248 202.3684491 -195.01777649 200.49765015 C-195.07494896 183.39926906 -195.14750451 166.30101457 -195.23571491 149.20276451 C-195.28067143 140.41204401 -195.32008643 131.621364 -195.34643555 122.83056641 C-195.36941679 115.1680818 -195.40281623 107.50572537 -195.44870156 99.84334242 C-195.47263211 95.78653732 -195.49136197 91.72985915 -195.49761391 87.67298508 C-195.50366556 83.85292732 -195.52366806 80.03319433 -195.55427551 76.21325684 C-195.56305449 74.81287517 -195.5667786 73.41245106 -195.56500816 72.012043 C-195.56335103 70.09607515 -195.58184897 68.18012181 -195.60127258 66.26425171 C-195.60588155 65.19312826 -195.61049051 64.12200481 -195.61523914 63.01842308 C-196.39021741 56.93877061 -199.44308737 52.92106436 -204 49 C-209.09457086 45.68260502 -214.07720946 45.33944847 -220 45 C-220 43.68 -220 42.36 -220 41 C-196.57 41 -173.14 41 -149 41 C-149 42.32 -149 43.64 -149 45 C-149.70125 45.01417969 -150.4025 45.02835938 -151.125 45.04296875 C-157.91673094 45.38440088 -162.8278572 46.42558125 -168 51 C-172.58617801 56.8797154 -173.15560429 61.44156147 -173.20532227 68.6940918 C-173.22037135 70.04764755 -173.22037135 70.04764755 -173.23572445 71.42854786 C-173.26712887 74.35207863 -173.29188867 77.27562295 -173.31640625 80.19921875 C-173.3348079 82.00313766 -173.35364448 83.80705218 -173.3729248 85.61096191 C-173.44139263 92.30308938 -173.5014325 98.99530092 -173.5625 105.6875 C-173.706875 120.640625 -173.85125 135.59375 -174 151 C-135.39 150.67 -96.78 150.34 -57 150 C-56.01 145.38 -55.02 140.76 -54 136 C-53.28851807 134.55761963 -52.57703613 133.11523926 -51.84399414 131.62915039 C-49.0373989 125.80943418 -49.44843929 119.52625589 -49.48357964 113.20336723 C-49.49637098 110.88331074 -49.48477115 108.56441673 -49.46754456 106.24440002 C-49.44095773 102.14225262 -49.43524341 98.04039561 -49.43664551 93.93817139 C-49.43887957 87.40017825 -49.42412784 80.86254876 -49.38105965 74.32469368 C-49.37140749 72.06940186 -49.37984373 69.81471029 -49.38975525 67.55943298 C-49.36136673 47.88754455 -45.53504649 28.16540221 -31.75 13.3125 C-25.64614514 7.52990066 -8.67907457 -4.33953729 0 0 Z " fill="#040304" transform="translate(314,66)"/>
<path d="M0 0 C6.93 0 13.86 0 21 0 C21.226875 2.000625 21.45375 4.00125 21.6875 6.0625 C22.90543337 13.84374097 24.9118059 17.65297249 31.125 22.375 C35.75279983 24.77612009 40.87944312 24.81480807 46 25 C46 26.32 46 27.64 46 29 C24.22 29.33 2.44 29.66 -20 30 C-23.74321723 48.71608615 -26.19591312 68.18021385 -15 85 C-5.23386112 97.68608242 7.89996929 107.20702749 24 110 C43.6684825 112.13065453 62.23211088 108.13702674 78.3125 96.3125 C87.94267258 88.13070537 94.75408308 75.03814787 96.31787109 62.43896484 C97.70868754 43.23028328 92.52831182 27.32450559 80.234375 12.43359375 C77.01666982 8.92899527 73.51634723 5.80843611 69.90625 2.71484375 C69.2771875 2.14894531 68.648125 1.58304687 68 1 C68 0.67 68 0.34 68 0 C72.42880759 -0.22379308 76.8545637 -0.38636162 81.28735352 -0.49438477 C82.79216867 -0.53943718 84.2965943 -0.60070654 85.80004883 -0.67895508 C98.29010852 -1.31235883 98.29010852 -1.31235883 102.49926758 1.91821289 C104.28266047 4.20415382 105.65665311 6.43646907 107 9 C107.84100336 10.19685851 108.69277948 11.38634391 109.5625 12.5625 C111.94142259 16.48535911 113.56188411 20.66265905 115.1875 24.9375 C115.56273804 25.92182007 115.56273804 25.92182007 115.94555664 26.92602539 C122.75550229 45.55614031 121.60822973 65.3345676 113.3125 83.3125 C106.24854982 96.36314795 95.46662487 107.58895396 82.25 114.375 C81.65566162 114.6846167 81.06132324 114.9942334 80.44897461 115.31323242 C68.94516038 120.83320175 57.19498788 122.6745537 44.59326172 122.52148438 C42.49979987 122.49999795 40.40976682 122.52144759 38.31640625 122.546875 C17.67296025 122.59097621 -0.07480984 115.14826616 -15.14453125 100.984375 C-21.07274162 94.86346946 -24.65665763 87.74470449 -28 80 C-28.65548828 78.52466797 -28.65548828 78.52466797 -29.32421875 77.01953125 C-35.7272929 60.01206762 -32.85870917 41.19513431 -25.68359375 25.03515625 C-21.8052603 17.33373627 -16.3815022 10.68965393 -11 4 C-10.01 4.33 -9.02 4.66 -8 5 C-8.65078339 8.44439012 -10.02221246 10.91607065 -11.875 13.875 C-14.11658506 17.51757573 -16.16996805 21.13659922 -18 25 C-9.52418248 21.96754084 -5.02510703 18.05021406 -1 10 C-0.67 6.7 -0.34 3.4 0 0 Z " fill="#050405" transform="translate(265,305)"/>
<path d="M0 0 C7.26 0 14.52 0 22 0 C22.47110702 22.613137 20.14044711 42.34315542 6.6875 61.25 C-1.12911467 69.2483964 -12.13643208 74.56123986 -23 77 C-24.32 77 -25.64 77 -27 77 C-26.6375217 74.30479841 -26.25161168 73.22191502 -24.1796875 71.39453125 C-23.41914062 70.87246094 -22.65859375 70.35039062 -21.875 69.8125 C-10.30121435 61.13674625 -4.23692145 48.40980917 -1.83764648 34.32055664 C-0.21877272 22.9884403 -0.24380304 11.42511474 0 0 Z " fill="#050506" transform="translate(118,305)"/>
<path d="M0 0 C2.3125 1.625 2.3125 1.625 4 4 C4.64250722 7.77472994 4.26836859 9.50620179 2.4375 12.875 C0 15 0 15 -3.5625 15.5625 C-7 15 -7 15 -8.9375 13.4375 C-10.42791738 10.01830718 -10.52704073 7.68928508 -10 4 C-6.98538624 0.64085896 -4.52721473 -0.92865943 0 0 Z " fill="#171317" transform="translate(230,279)"/>
<path d="M0 0 C3.4375 1 3.4375 1 5.4375 2.625 C6.89385054 6.08383253 6.35055869 8.41298371 5.4375 12 C4.3125 13.9375 4.3125 13.9375 2.4375 15 C-0.94568857 15.36248449 -3.43034865 15.58433618 -6.5 14 C-8.22410604 10.75462393 -8.18663468 7.53203487 -7.5625 4 C-5.32424706 0.32926518 -4.31620847 0 0 0 Z " fill="#1D191E" transform="translate(196.5625,279)"/>
<path d="M0 0 C7 0 7 0 10 2 C10.47730962 5.72301503 10.1387261 6.79191085 8 10 C8.33 10.66 8.66 11.32 9 12 C9.99 12.33 10.98 12.66 12 13 C12 13.66 12 14.32 12 15 C8.75791433 14.64950425 7.38472296 14.43778819 5.1875 11.9375 C4.795625 11.298125 4.40375 10.65875 4 10 C3.67 11.65 3.34 13.3 3 15 C2.01 15 1.02 15 0 15 C0 10.05 0 5.1 0 0 Z " fill="#1D191E" transform="translate(130,279)"/>
<path d="M0 0 C6.0546875 -0.1953125 6.0546875 -0.1953125 8 0 C8.66 0.66 9.32 1.32 10 2 C9.625 4.375 9.625 4.375 9 7 C9 8.32 9 9.64 9 11 C9.99 11.33 10.98 11.66 12 12 C12 12.66 12 13.32 12 14 C9.6875 14.25 9.6875 14.25 7 14 C5.1875 12 5.1875 12 4 10 C3.67 11.32 3.34 12.64 3 14 C2.01 14 1.02 14 0 14 C0 9.38 0 4.76 0 0 Z " fill="#110F11" transform="translate(418,280)"/>
<path d="M0 0 C6.0546875 -0.1953125 6.0546875 -0.1953125 8 0 C8.66 0.66 9.32 1.32 10 2 C9.625 4.375 9.625 4.375 9 7 C9 8.32 9 9.64 9 11 C9.99 11.33 10.98 11.66 12 12 C12 12.66 12 13.32 12 14 C9.6875 14.25 9.6875 14.25 7 14 C5.1875 12 5.1875 12 4 10 C3.67 11.32 3.34 12.64 3 14 C2.01 14 1.02 14 0 14 C0 9.38 0 4.76 0 0 Z " fill="#110F11" transform="translate(252,280)"/>
<path d="M0 0 C1.5778125 0.4021875 1.5778125 0.4021875 3.1875 0.8125 C3.5175 1.8025 3.8475 2.7925 4.1875 3.8125 C2.888125 3.791875 1.58875 3.77125 0.25 3.75 C-1.10415633 3.72850546 -2.46006083 3.74101801 -3.8125 3.8125 C-5.16868499 4.93784105 -5.16868499 4.93784105 -4.875 7.875 C-4.854375 8.844375 -4.83375 9.81375 -4.8125 10.8125 C-3.15635343 11.19468767 -1.48792976 11.52645102 0.1875 11.8125 C0.5175 11.4825 0.8475 11.1525 1.1875 10.8125 C0.5275 10.4825 -0.1325 10.1525 -0.8125 9.8125 C-0.8125 8.8225 -0.8125 7.8325 -0.8125 6.8125 C1.1675 6.8125 3.1475 6.8125 5.1875 6.8125 C5.1875 9.4525 5.1875 12.0925 5.1875 14.8125 C-3.81355708 15.43089323 -3.81355708 15.43089323 -7.4375 13.1875 C-9.26078677 10.03818648 -9.4712245 8.39888897 -8.8125 4.8125 C-6.008316 0.81866219 -4.96013314 -0.24394097 0 0 Z " fill="#151216" transform="translate(365.8125,279.1875)"/>
<path d="M0 0 C0.99 0 1.98 0 3 0 C3 4.95 3 9.9 3 15 C-1 14 -1 14 -2.484375 12.15234375 C-2.90203125 11.42144531 -3.3196875 10.69054687 -3.75 9.9375 C-4.17796875 9.20402344 -4.6059375 8.47054688 -5.046875 7.71484375 C-5.36140625 7.14894531 -5.6759375 6.58304687 -6 6 C-6.33 8.97 -6.66 11.94 -7 15 C-7.66 15 -8.32 15 -9 15 C-9 10.38 -9 5.76 -9 1 C-8.01 1 -7.02 1 -6 1 C-4.61328125 2.53125 -4.61328125 2.53125 -3.3125 4.5 C-2.87550781 5.1496875 -2.43851563 5.799375 -1.98828125 6.46875 C-1.66214844 6.9740625 -1.33601562 7.479375 -1 8 C-0.67 5.36 -0.34 2.72 0 0 Z " fill="#211D23" transform="translate(168,279)"/>
<path d="M0 0 C1.32 0 2.64 0 4 0 C4.83764268 1.95649397 5.66999059 3.91525556 6.5 5.875 C6.9640625 6.96554687 7.428125 8.05609375 7.90625 9.1796875 C9 12 9 12 9 14 C8.01 14 7.02 14 6 14 C6 13.01 6 12.02 6 11 C3.36 11 0.72 11 -2 11 C-2 11.99 -2 12.98 -2 14 C-2.99 14 -3.98 14 -5 14 C-3.45730076 9.27934033 -1.92205381 4.58335908 0 0 Z " fill="#342D36" transform="translate(392,280)"/>
<path d="M0 0 C0.66 0 1.32 0 2 0 C3.98 4.62 5.96 9.24 8 14 C7.01 14.33 6.02 14.66 5 15 C4.67 14.34 4.34 13.68 4 13 C1.67843403 12.59270772 -0.6568787 12.25561323 -3 12 C-3.33 12.99 -3.66 13.98 -4 15 C-4.66 15 -5.32 15 -6 15 C-4.36041242 9.76727367 -2.61047965 4.84803364 0 0 Z " fill="#1A161B" transform="translate(333,279)"/>
<path d="M0 0 C0.99 0 1.98 0 3 0 C3.83764268 1.95649397 4.66999059 3.91525556 5.5 5.875 C5.9640625 6.96554687 6.428125 8.05609375 6.90625 9.1796875 C8 12 8 12 8 14 C7.01 14 6.02 14 5 14 C5 13.01 5 12.02 5 11 C2.6568787 11.25561323 0.32156597 11.59270772 -2 12 C-2.33 12.66 -2.66 13.32 -3 14 C-3.99 13.67 -4.98 13.34 -6 13 C-5.1905146 11.01959844 -4.37732831 9.04070923 -3.5625 7.0625 C-3.11003906 5.96035156 -2.65757813 4.85820312 -2.19140625 3.72265625 C-1 1 -1 1 0 0 Z " fill="#403742" transform="translate(105,280)"/>
<path d="M0 0 C0.99 0 1.98 0 3 0 C3 2.31 3 4.62 3 7 C5.31 7 7.62 7 10 7 C10 5.02 10 3.04 10 1 C10.66 1 11.32 1 12 1 C12 5.62 12 10.24 12 15 C11.34 15 10.68 15 10 15 C10 13.02 10 11.04 10 9 C7.69 9 5.38 9 3 9 C3 10.98 3 12.96 3 15 C2.01 15 1.02 15 0 15 C0 10.05 0 5.1 0 0 Z " fill="#201B21" transform="translate(70,279)"/>
<path d="M0 0 C0.763125 0.20625 1.52625 0.4125 2.3125 0.625 C2.6425 1.615 2.9725 2.605 3.3125 3.625 C1.3325 3.625 -0.6475 3.625 -2.6875 3.625 C-1.18086217 6.63827566 1.34416411 7.23556618 4.3125 8.625 C3.9375 11.0625 3.9375 11.0625 3.3125 13.625 C0.60370665 14.97939668 -1.69683268 14.69001451 -4.6875 14.625 C-5.3475 13.305 -6.0075 11.985 -6.6875 10.625 C-5.6975 10.625 -4.7075 10.625 -3.6875 10.625 C-3.6875 11.285 -3.6875 11.945 -3.6875 12.625 C-1.71213255 12.27713292 -1.71213255 12.27713292 0.3125 11.625 C0.6425 10.965 0.9725 10.305 1.3125 9.625 C0.343125 9.315625 -0.62625 9.00625 -1.625 8.6875 C-4.6875 7.625 -4.6875 7.625 -5.6875 6.625 C-5.9375 4.1875 -5.9375 4.1875 -5.6875 1.625 C-2.6875 -0.375 -2.6875 -0.375 0 0 Z " fill="#221D23" transform="translate(306.6875,279.375)"/>
<path d="M0 0 C2.5625 0.1875 2.5625 0.1875 4.5625 2.1875 C4.1875 5.8125 4.1875 5.8125 3.5625 9.1875 C1.25 9.875 1.25 9.875 -1.4375 10.1875 C-3.3125 9.125 -3.3125 9.125 -4.4375 7.1875 C-3.88641641 0.29895511 -3.88641641 0.29895511 0 0 Z " fill="#BFA5C5" transform="translate(195.4375,281.8125)"/>
<path d="M0 0 C0.78375 0.04125 1.5675 0.0825 2.375 0.125 C3.75625018 2.88750036 3.56579306 5.07231099 3.375 8.125 C2.715 8.785 2.055 9.445 1.375 10.125 C-3.18055556 9.56944444 -3.18055556 9.56944444 -4.625 8.125 C-4.8125 5.1875 -4.8125 5.1875 -4.625 2.125 C-2.625 0.125 -2.625 0.125 0 0 Z " fill="#C5ABCC" transform="translate(227.625,281.875)"/>
<path d="M0 0 C2.3125 1.625 2.3125 1.625 4 4 C4.25 7.25 4.25 7.25 4 10 C3.01 9.67 2.02 9.34 1 9 C0.67 7.02 0.34 5.04 0 3 C-4.95 4.485 -4.95 4.485 -10 6 C-7.52056329 1.04112657 -5.5439236 -0.81130589 0 0 Z " fill="#252026" transform="translate(230,279)"/>
<path d="M0 0 C1.98 0 3.96 0 6 0 C6 2.64 6 5.28 6 8 C3.03 8 0.06 8 -3 8 C-3 7.34 -3 6.68 -3 6 C-1.35 5.34 0.3 4.68 2 4 C1.34 3.67 0.68 3.34 0 3 C0 2.01 0 1.02 0 0 Z " fill="#282229" transform="translate(365,286)"/>
<path d="M0 0 C0.598125 0.350625 1.19625 0.70125 1.8125 1.0625 C1.5 3.4375 1.5 3.4375 0.8125 6.0625 C-0.1775 6.7225 -1.1675 7.3825 -2.1875 8.0625 C-2.1875 7.0725 -2.1875 6.0825 -2.1875 5.0625 C-3.5075 5.0625 -4.8275 5.0625 -6.1875 5.0625 C-5.8575 3.4125 -5.5275 1.7625 -5.1875 0.0625 C-2.1875 -0.9375 -2.1875 -0.9375 0 0 Z " fill="#1A161B" transform="translate(426.1875,280.9375)"/>
<path d="M0 0 C0.598125 0.350625 1.19625 0.70125 1.8125 1.0625 C1.5 3.4375 1.5 3.4375 0.8125 6.0625 C-0.1775 6.7225 -1.1675 7.3825 -2.1875 8.0625 C-2.1875 7.0725 -2.1875 6.0825 -2.1875 5.0625 C-3.5075 5.0625 -4.8275 5.0625 -6.1875 5.0625 C-5.8575 3.4125 -5.5275 1.7625 -5.1875 0.0625 C-2.1875 -0.9375 -2.1875 -0.9375 0 0 Z " fill="#1A161B" transform="translate(260.1875,280.9375)"/>
<path d="M0 0 C0.99 0.33 1.98 0.66 3 1 C4.1875 4.0625 4.1875 4.0625 5 7 C4.01 7 3.02 7 2 7 C1.67 6.34 1.34 5.68 1 5 C-1.32156597 4.59270772 -3.6568787 4.25561323 -6 4 C-6.33 4.99 -6.66 5.98 -7 7 C-7.66 7 -8.32 7 -9 7 C-8.67 5.35 -8.34 3.7 -8 2 C-4.71023192 0.90341064 -3.28696233 1.20046862 0 2 C0 1.34 0 0.68 0 0 Z " fill="#1A171B" transform="translate(336,287)"/>
<path d="M0 0 C0.99 0 1.98 0 3 0 C4.32 2.31 5.64 4.62 7 7 C6.01 7 5.02 7 4 7 C3.67 6.34 3.34 5.68 3 5 C2.67 7.97 2.34 10.94 2 14 C1.34 14 0.68 14 0 14 C0 9.38 0 4.76 0 0 Z " fill="#050405" transform="translate(159,280)"/>
<path d="M0 0 C0.99 0 1.98 0 3 0 C3.83764268 1.95649397 4.66999059 3.91525556 5.5 5.875 C6.19609375 7.51082031 6.19609375 7.51082031 6.90625 9.1796875 C8 12 8 12 8 14 C7.01 14 6.02 14 5 14 C4.73445313 13.28972656 4.46890625 12.57945312 4.1953125 11.84765625 C3.84210938 10.92855469 3.48890625 10.00945312 3.125 9.0625 C2.77695313 8.14597656 2.42890625 7.22945313 2.0703125 6.28515625 C1.2180914 3.85058944 1.2180914 3.85058944 -1 3 C-0.67 2.01 -0.34 1.02 0 0 Z " fill="#141215" transform="translate(105,280)"/>
<path d="M0 0 C0.66 0 1.32 0 2 0 C2 4.62 2 9.24 2 14 C1.34 14 0.68 14 0 14 C0 11.69 0 9.38 0 7 C-2.31 7 -4.62 7 -7 7 C-7 6.67 -7 6.34 -7 6 C-4.69 6 -2.38 6 0 6 C0 4.02 0 2.04 0 0 Z " fill="#000000" transform="translate(80,280)"/>
<path d="M0 0 C1.74627478 2.61941217 2.38722388 4.03824877 3 7 C2.01 7 1.02 7 0 7 C0 6.01 0 5.02 0 4 C-2.64 4 -5.28 4 -8 4 C-8 4.99 -8 5.98 -8 7 C-8.99 7 -9.98 7 -11 7 C-10.67 5.68 -10.34 4.36 -10 3 C-9.04287109 2.92652344 -9.04287109 2.92652344 -8.06640625 2.8515625 C-7.24011719 2.77679688 -6.41382813 2.70203125 -5.5625 2.625 C-4.73878906 2.55539062 -3.91507812 2.48578125 -3.06640625 2.4140625 C-2.04353516 2.20910156 -2.04353516 2.20910156 -1 2 C-0.67 1.34 -0.34 0.68 0 0 Z " fill="#211C22" transform="translate(398,287)"/>
<path d="M0 0 C0.33 0 0.66 0 1 0 C1.33 2.31 1.66 4.62 2 7 C3.65 7.33 5.3 7.66 7 8 C7 8.66 7 9.32 7 10 C4.25913944 10.22223194 2.56036279 10.34781139 0.1875 8.875 C-1.50813053 6.19768863 -1.2694875 4.09910627 -1 1 C-0.67 0.67 -0.34 0.34 0 0 Z " fill="#0B090B" transform="translate(190,284)"/>
<path d="M0 0 C2.475 0.99 2.475 0.99 5 2 C5 2.66 5 3.32 5 4 C4.34 4 3.68 4 3 4 C3 4.66 3 5.32 3 6 C1.68 6 0.36 6 -1 6 C-0.67 4.02 -0.34 2.04 0 0 Z " fill="#716275" transform="translate(333,283)"/>
<path d="M0 0 C0.33 0.99 0.66 1.98 1 3 C-1.97 3 -4.94 3 -8 3 C-7.67 2.01 -7.34 1.02 -7 0 C-4.3333581 -1.33332095 -2.83319697 -0.67102033 0 0 Z " fill="#221D23" transform="translate(309,280)"/>
<path d="M0 0 C0.33 0 0.66 0 1 0 C1.36075949 4.44936709 1.36075949 4.44936709 -0.1875 6.8125 C-2.55982525 8.36678206 -4.22041345 8.22537188 -7 8 C-7 7.34 -7 6.68 -7 6 C-6.21625 5.7525 -5.4325 5.505 -4.625 5.25 C-1.67682892 3.84610901 -1.0975223 2.99324263 0 0 Z " fill="#050405" transform="translate(232,286)"/>
<path d="M0 0 C0.66 0.33 1.32 0.66 2 1 C2.33 1.99 2.66 2.98 3 4 C3.99 4.33 4.98 4.66 6 5 C6 5.66 6 6.32 6 7 C3.625 6.75 3.625 6.75 1 6 C-0.375 4.0625 -0.375 4.0625 -1 2 C-0.67 1.34 -0.34 0.68 0 0 Z " fill="#121013" transform="translate(136,287)"/>
<path d="M0 0 C0.99 0.33 1.98 0.66 3 1 C4.1875 4.0625 4.1875 4.0625 5 7 C4.01 7 3.02 7 2 7 C1.896875 6.360625 1.79375 5.72125 1.6875 5.0625 C1.460625 4.381875 1.23375 3.70125 1 3 C0.01 2.67 -0.98 2.34 -2 2 C-1.34 2 -0.68 2 0 2 C0 1.34 0 0.68 0 0 Z " fill="#110F11" transform="translate(336,287)"/>
<path d="M0 0 C0.433125 0.474375 0.86625 0.94875 1.3125 1.4375 C3.02309613 3.23686957 3.02309613 3.23686957 6 4 C6 4.66 6 5.32 6 6 C3.625 6.125 3.625 6.125 1 6 C0.34 5.34 -0.32 4.68 -1 4 C-0.625 1.875 -0.625 1.875 0 0 Z " fill="#100E10" transform="translate(302,282)"/>
<path d="M0 0 C-0.33 0.99 -0.66 1.98 -1 3 C-2.32 3 -3.64 3 -5 3 C-5 2.34 -5 1.68 -5 1 C-5.99 0.67 -6.98 0.34 -8 0 C-4.71023192 -1.09658936 -3.28696233 -0.79953138 0 0 Z " fill="#B49BBA" transform="translate(308,289)"/>
<path d="M0 0 C1.65 0 3.3 0 5 0 C5 1.32 5 2.64 5 4 C3.35 4 1.7 4 0 4 C0 2.68 0 1.36 0 0 Z " fill="#AC95B2" transform="translate(420,282)"/>
<path d="M0 0 C1.65 0 3.3 0 5 0 C5 1.32 5 2.64 5 4 C3.35 4 1.7 4 0 4 C0 2.68 0 1.36 0 0 Z " fill="#AC95B2" transform="translate(254,282)"/>
<path d="M0 0 C2.475 0.495 2.475 0.495 5 1 C4.67 1.99 4.34 2.98 4 4 C2.68 4 1.36 4 0 4 C0 2.68 0 1.36 0 0 Z " fill="#BDA3C3" transform="translate(133,282)"/>
<path d="M0 0 C0.99 0 1.98 0 3 0 C3 0.66 3 1.32 3 2 C4.32 2 5.64 2 7 2 C7 2.66 7 3.32 7 4 C5.35 4 3.7 4 2 4 C1.34 2.68 0.68 1.36 0 0 Z " fill="#0C0A0C" transform="translate(300,290)"/>
<path d="M0 0 C2.31 0.33 4.62 0.66 7 1 C7.33 1.99 7.66 2.98 8 4 C5.125 3.6875 5.125 3.6875 2 3 C1.34 2.01 0.68 1.02 0 0 Z " fill="#302A32" transform="translate(362,279)"/>
</svg>
